<?xml version="1.0" encoding="UTF-8" standalone="no"?>
<!DOCTYPE svg PUBLIC "-//W3C//DTD SVG 1.1//EN"
 "http://www.w3.org/Graphics/SVG/1.1/DTD/svg11.dtd">
<!-- Generated by graphviz version 2.36.0 (20140111.2315)
 -->
<!-- Title: plop Pages: 1 -->
<svg width="364pt" height="235pt"
 viewBox="0.00 0.00 363.78 234.72" xmlns="http://www.w3.org/2000/svg" xmlns:xlink="http://www.w3.org/1999/xlink">
<g id="graph0" class="graph" transform="scale(1 1) rotate(0) translate(4 230.72)">
<title>plop</title>
<polygon fill="white" stroke="none" points="-4,4 -4,-230.72 359.779,-230.72 359.779,4 -4,4"/>
<!-- main_o -->
<g id="node1" class="node"><title>main_o</title>
<ellipse fill="none" stroke="black" cx="37.6967" cy="-113.36" rx="37.8943" ry="18"/>
<text text-anchor="middle" x="37.6967" y="-109.66" font-family="Times,serif" font-size="14.00">main_o</text>
</g>
<!-- a_o -->
<g id="node2" class="node"><title>a_o</title>
<ellipse fill="none" stroke="black" cx="147.393" cy="-113.36" rx="27" ry="18"/>
<text text-anchor="middle" x="147.393" y="-109.66" font-family="Times,serif" font-size="14.00">a_o</text>
</g>
<!-- main_o&#45;&gt;a_o -->
<g id="edge1" class="edge"><title>main_o:center&#45;&gt;a_o:center</title>
<path fill="none" stroke="black" d="M75.448,-113.36C86.6258,-113.36 98.8563,-113.36 110.011,-113.36"/>
<polygon fill="black" stroke="black" points="110.306,-116.86 120.306,-113.36 110.306,-109.86 110.306,-116.86"/>
<text text-anchor="middle" x="101.229" y="-102.16" font-family="Times,serif" font-size="14.00">a_text</text>
</g>
<!-- b_o -->
<g id="node5" class="node"><title>b_o</title>
<ellipse fill="none" stroke="black" cx="216.677" cy="-208.72" rx="27" ry="18"/>
<text text-anchor="middle" x="216.677" y="-205.02" font-family="Times,serif" font-size="14.00">b_o</text>
</g>
<!-- a_o&#45;&gt;b_o -->
<g id="edge3" class="edge"><title>a_o:center&#45;&gt;b_o:center</title>
<path fill="none" stroke="black" d="M154.123,-131.236C163.291,-146.997 179.52,-169.897 193.232,-186.754"/>
<polygon fill="black" stroke="black" points="190.611,-189.075 199.72,-194.487 195.973,-184.576 190.611,-189.075"/>
<text text-anchor="middle" x="158.178" y="-162.795" font-family="Times,serif" font-size="14.00">b_bss</text>
</g>
<!-- a_o&#45;&gt;b_o -->
<g id="edge6" class="edge"><title>a_o:center&#45;&gt;b_o:center</title>
<path fill="none" stroke="black" d="M164.441,-127.698C177.032,-142.195 193.647,-164.783 204.842,-182.467"/>
<polygon fill="black" stroke="black" points="201.965,-184.473 210.152,-191.199 207.946,-180.836 201.965,-184.473"/>
<text text-anchor="middle" x="166.141" y="-143.882" font-family="Times,serif" font-size="14.00">b_data</text>
</g>
<!-- c_o -->
<g id="node6" class="node"><title>c_o</title>
<ellipse fill="none" stroke="black" cx="216.677" cy="-18" rx="27" ry="18"/>
<text text-anchor="middle" x="216.677" y="-14.3" font-family="Times,serif" font-size="14.00">c_o</text>
</g>
<!-- a_o&#45;&gt;c_o -->
<g id="edge4" class="edge"><title>a_o:center&#45;&gt;c_o:center</title>
<path fill="none" stroke="black" d="M164.441,-99.0226C177.032,-84.5254 193.647,-61.9371 204.842,-44.2533"/>
<polygon fill="black" stroke="black" points="207.946,-45.8844 210.152,-35.5218 201.965,-42.2471 207.946,-45.8844"/>
<text text-anchor="middle" x="167.641" y="-75.4379" font-family="Times,serif" font-size="14.00">c_text</text>
</g>
<!-- a_o&#45;&gt;c_o -->
<g id="edge5" class="edge"><title>a_o:center&#45;&gt;c_o:center</title>
<path fill="none" stroke="black" d="M154.123,-95.4845C163.291,-79.7236 179.52,-56.8236 193.232,-39.9661"/>
<polygon fill="black" stroke="black" points="195.973,-42.1443 199.72,-32.2338 190.611,-37.6451 195.973,-42.1443"/>
<text text-anchor="middle" x="155.678" y="-56.5253" font-family="Times,serif" font-size="14.00">c_data</text>
</g>
<!-- d_o -->
<g id="node3" class="node"><title>d_o</title>
<ellipse fill="none" stroke="black" cx="328.779" cy="-172.296" rx="27" ry="18"/>
<text text-anchor="middle" x="328.779" y="-168.596" font-family="Times,serif" font-size="14.00">d_o</text>
</g>
<!-- e_o -->
<g id="node4" class="node"><title>e_o</title>
<ellipse fill="none" stroke="black" cx="328.779" cy="-54.4243" rx="27" ry="18"/>
<text text-anchor="middle" x="328.779" y="-50.7243" font-family="Times,serif" font-size="14.00">e_o</text>
</g>
<!-- d_o&#45;&gt;e_o -->
<g id="edge2" class="edge"><title>d_o:center&#45;&gt;e_o:center</title>
<path fill="none" stroke="black" d="M333.788,-154.394C335.778,-135.355 336.062,-104.974 334.641,-82.6955"/>
<polygon fill="black" stroke="black" points="338.11,-82.1762 333.806,-72.495 331.133,-82.7472 338.11,-82.1762"/>
<text text-anchor="middle" x="316.215" y="-122.345" font-family="Times,serif" font-size="14.00">e_data</text>
</g>
<!-- e_o&#45;&gt;d_o -->
<g id="edge9" class="edge"><title>e_o:center&#45;&gt;d_o:center</title>
<path fill="none" stroke="black" d="M323.77,-72.3265C321.78,-91.3656 321.496,-121.747 322.918,-144.025"/>
<polygon fill="black" stroke="black" points="319.448,-144.544 323.752,-154.225 326.425,-143.973 319.448,-144.544"/>
<text text-anchor="middle" x="306.344" y="-96.9757" font-family="Times,serif" font-size="14.00">d_text</text>
</g>
<!-- b_o&#45;&gt;d_o -->
<g id="edge7" class="edge"><title>b_o:center&#45;&gt;d_o:center</title>
<path fill="none" stroke="black" d="M243.608,-206.006C260.383,-201.814 281.963,-194.941 299.21,-188.356"/>
<polygon fill="black" stroke="black" points="300.802,-191.489 308.795,-184.534 298.21,-184.987 300.802,-191.489"/>
<text text-anchor="middle" x="288.409" y="-200.981" font-family="Times,serif" font-size="14.00">d_text</text>
</g>
<!-- b_o&#45;&gt;d_o -->
<g id="edge8" class="edge"><title>b_o:center&#45;&gt;d_o:center</title>
<path fill="none" stroke="black" d="M236.604,-196.506C251.964,-190.074 273.607,-182.748 292.068,-177.603"/>
<polygon fill="black" stroke="black" points="293.166,-180.933 301.936,-174.988 291.374,-174.166 293.166,-180.933"/>
<text text-anchor="middle" x="245.836" y="-175.855" font-family="Times,serif" font-size="14.00">d_data</text>
</g>
<!-- c_o&#45;&gt;e_o -->
<g id="edge10" class="edge"><title>c_o:center&#45;&gt;e_o:center</title>
<path fill="none" stroke="black" d="M236.604,-30.2139C251.964,-36.6461 273.607,-43.9727 292.068,-49.1176"/>
<polygon fill="black" stroke="black" points="291.374,-52.5543 301.936,-51.7319 293.166,-45.7877 291.374,-52.5543"/>
<text text-anchor="middle" x="246.336" y="-43.4657" font-family="Times,serif" font-size="14.00">e_data</text>
</g>
<!-- c_o&#45;&gt;e_o -->
<g id="edge11" class="edge"><title>c_o:center&#45;&gt;e_o:center</title>
<path fill="none" stroke="black" d="M243.608,-20.7148C260.383,-24.9058 281.963,-31.7789 299.21,-38.3648"/>
<polygon fill="black" stroke="black" points="298.21,-41.7338 308.795,-42.1868 300.802,-35.2317 298.21,-41.7338"/>
<text text-anchor="middle" x="288.409" y="-18.3398" font-family="Times,serif" font-size="14.00">e_text</text>
</g>
</g>
</svg>
