<?xml version="1.0" encoding="UTF-8" standalone="no"?>
<!DOCTYPE svg PUBLIC "-//W3C//DTD SVG 1.1//EN"
 "http://www.w3.org/Graphics/SVG/1.1/DTD/svg11.dtd">
<!-- Generated by graphviz version 2.36.0 (20140111.2315)
 -->
<!-- Title: plop Pages: 1 -->
<svg width="364pt" height="235pt"
 viewBox="0.00 0.00 363.78 234.72" xmlns="http://www.w3.org/2000/svg" xmlns:xlink="http://www.w3.org/1999/xlink">
<g id="graph0" class="graph" transform="scale(1 1) rotate(0) translate(4 230.72)">
<title>plop</title>
<polygon fill="white" stroke="none" points="-4,4 -4,-230.72 359.779,-230.72 359.779,4 -4,4"/>
<!-- main_o -->
<g id="node1" class="node"><title>main_o</title>
<ellipse fill="none" stroke="black" cx="37.6967" cy="-113.36" rx="37.8943" ry="18"/>
<text text-anchor="middle" x="37.6967" y="-109.66" font-family="Times,serif" font-size="14.00">main_o</text>
</g>
<!-- a_o -->
<g id="node2" class="node"><title>a_o</title>
<ellipse fill="none" stroke="black" cx="147.393" cy="-113.36" rx="27" ry="18"/>
<text text-anchor="middle" x="147.393" y="-109.66" font-family="Times,serif" font-size="14.00">a_o</text>
</g>
<!-- main_o&#45;&gt;a_o -->
<g id="edge1" class="edge"><title>main_o&#45;&gt;a_o</title>
<path fill="none" stroke="#a6cee3" stroke-width="5" d="M75.448,-113.36C86.6258,-113.36 98.8563,-113.36 110.011,-113.36"/>
<polygon fill="#a6cee3" stroke="#a6cee3" stroke-width="5" points="110.306,-117.735 120.306,-113.36 110.306,-108.985 110.306,-117.735"/>
</g>
<!-- b_o -->
<g id="node5" class="node"><title>b_o</title>
<ellipse fill="none" stroke="black" cx="216.677" cy="-208.72" rx="27" ry="18"/>
<text text-anchor="middle" x="216.677" y="-205.02" font-family="Times,serif" font-size="14.00">b_o</text>
</g>
<!-- a_o&#45;&gt;b_o -->
<g id="edge3" class="edge"><title>a_o&#45;&gt;b_o</title>
<path fill="none" stroke="#b2df8a" stroke-width="10" d="M159.462,-129.971C170.29,-144.875 186.332,-166.954 198.676,-183.944"/>
<polygon fill="#b2df8a" stroke="#b2df8a" stroke-width="10" points="191.79,-189.353 204.747,-192.3 205.948,-179.067 191.79,-189.353"/>
</g>
<!-- c_o -->
<g id="node6" class="node"><title>c_o</title>
<ellipse fill="none" stroke="black" cx="216.677" cy="-18" rx="27" ry="18"/>
<text text-anchor="middle" x="216.677" y="-14.3" font-family="Times,serif" font-size="14.00">c_o</text>
</g>
<!-- a_o&#45;&gt;c_o -->
<g id="edge4" class="edge"><title>a_o&#45;&gt;c_o</title>
<path fill="none" stroke="#33a02c" stroke-width="10" d="M159.462,-96.7497C170.29,-81.845 186.332,-59.766 198.676,-42.776"/>
<polygon fill="#33a02c" stroke="#33a02c" stroke-width="10" points="205.948,-47.6535 204.747,-34.4201 191.79,-37.3672 205.948,-47.6535"/>
</g>
<!-- d_o -->
<g id="node3" class="node"><title>d_o</title>
<ellipse fill="none" stroke="black" cx="328.779" cy="-172.296" rx="27" ry="18"/>
<text text-anchor="middle" x="328.779" y="-168.596" font-family="Times,serif" font-size="14.00">d_o</text>
</g>
<!-- e_o -->
<g id="node4" class="node"><title>e_o</title>
<ellipse fill="none" stroke="black" cx="328.779" cy="-54.4243" rx="27" ry="18"/>
<text text-anchor="middle" x="328.779" y="-50.7243" font-family="Times,serif" font-size="14.00">e_o</text>
</g>
<!-- d_o&#45;&gt;e_o -->
<g id="edge2" class="edge"><title>d_o&#45;&gt;e_o</title>
<path fill="none" stroke="#1f78b4" stroke-width="5" d="M333.788,-154.394C335.778,-135.355 336.062,-104.974 334.641,-82.6955"/>
<polygon fill="#1f78b4" stroke="#1f78b4" stroke-width="5" points="338.982,-82.1048 333.806,-72.495 330.261,-82.8185 338.982,-82.1048"/>
</g>
<!-- e_o&#45;&gt;d_o -->
<g id="edge6" class="edge"><title>e_o&#45;&gt;d_o</title>
<path fill="none" stroke="#e31a1c" stroke-width="5" d="M323.77,-72.3265C321.78,-91.3656 321.496,-121.747 322.918,-144.025"/>
<polygon fill="#e31a1c" stroke="#e31a1c" stroke-width="5" points="318.576,-144.616 323.752,-154.225 327.297,-143.902 318.576,-144.616"/>
</g>
<!-- b_o&#45;&gt;d_o -->
<g id="edge5" class="edge"><title>b_o&#45;&gt;d_o</title>
<path fill="none" stroke="#fb9a99" stroke-width="10" d="M241.001,-200.817C256.72,-195.71 277.401,-188.99 294.741,-183.356"/>
<polygon fill="#fb9a99" stroke="#fb9a99" stroke-width="10" points="297.695,-191.596 304.502,-180.184 292.287,-174.953 297.695,-191.596"/>
</g>
<!-- c_o&#45;&gt;e_o -->
<g id="edge7" class="edge"><title>c_o&#45;&gt;e_o</title>
<path fill="none" stroke="#fdbf6f" stroke-width="10" d="M241.001,-25.9035C256.72,-31.0108 277.401,-37.7307 294.741,-43.3648"/>
<polygon fill="#fdbf6f" stroke="#fdbf6f" stroke-width="10" points="292.287,-51.7677 304.502,-46.5362 297.695,-35.1242 292.287,-51.7677"/>
</g>
</g>
</svg>
