<?xml version="1.0" encoding="UTF-8" standalone="no"?>
<!DOCTYPE svg PUBLIC "-//W3C//DTD SVG 1.1//EN"
 "http://www.w3.org/Graphics/SVG/1.1/DTD/svg11.dtd">
<!-- Generated by graphviz version 2.36.0 (20140111.2315)
 -->
<!-- Title: %3 Pages: 1 -->
<svg width="262pt" height="240pt"
 viewBox="0.00 0.00 262.00 240.00" xmlns="http://www.w3.org/2000/svg" xmlns:xlink="http://www.w3.org/1999/xlink">
<g id="graph0" class="graph" transform="scale(1 1) rotate(0) translate(4 236)">
<title>%3</title>
<polygon fill="white" stroke="none" points="-4,4 -4,-236 258,-236 258,4 -4,4"/>
<!-- DarthVader -->
<g id="node1" class="node"><title>DarthVader</title>
<ellipse fill="none" stroke="black" cx="51" cy="-214" rx="51.4931" ry="18"/>
<text text-anchor="middle" x="51" y="-210.3" font-family="Times,serif" font-size="14.00">DarthVader</text>
</g>
<!-- Luc -->
<g id="node2" class="node"><title>Luc</title>
<ellipse fill="none" stroke="black" cx="51" cy="-18" rx="27" ry="18"/>
<text text-anchor="middle" x="51" y="-14.3" font-family="Times,serif" font-size="14.00">Luc</text>
</g>
<!-- DarthVader&#45;&gt;Luc -->
<g id="edge1" class="edge"><title>DarthVader&#45;&gt;Luc</title>
<path fill="none" stroke="black" d="M51,-195.784C51,-162.061 51,-87.0582 51,-46.428"/>
<polygon fill="black" stroke="black" points="54.5001,-46.1776 51,-36.1776 47.5001,-46.1777 54.5001,-46.1776"/>
<text text-anchor="middle" x="78.5" y="-112.3" font-family="Times,serif" font-size="14.00">LucName</text>
</g>
<!-- Han -->
<g id="node3" class="node"><title>Han</title>
<ellipse fill="none" stroke="black" cx="183" cy="-214" rx="27" ry="18"/>
<text text-anchor="middle" x="183" y="-210.3" font-family="Times,serif" font-size="14.00">Han</text>
</g>
<!-- Leia -->
<g id="node4" class="node"><title>Leia</title>
<ellipse fill="none" stroke="black" cx="178" cy="-18" rx="27" ry="18"/>
<text text-anchor="middle" x="178" y="-14.3" font-family="Times,serif" font-size="14.00">Leia</text>
</g>
<!-- Han&#45;&gt;Leia -->
<g id="edge2" class="edge"><title>Han&#45;&gt;Leia</title>
<path fill="none" stroke="black" d="M172.33,-197.129C161.483,-179.959 145.393,-151.358 139,-124 132.293,-95.2989 147.199,-63.7764 160.477,-42.8346"/>
<polygon fill="black" stroke="black" points="163.549,-44.5367 166.189,-34.2761 157.727,-40.6506 163.549,-44.5367"/>
<text text-anchor="middle" x="168" y="-112.3" font-family="Times,serif" font-size="14.00">LeiaName</text>
</g>
<!-- Leia&#45;&gt;Han -->
<g id="edge3" class="edge"><title>Leia&#45;&gt;Han</title>
<path fill="none" stroke="black" d="M182.717,-35.8909C187.418,-53.6671 194.313,-82.5461 197,-108 199.807,-134.597 194.907,-164.861 190.15,-186.042"/>
<polygon fill="black" stroke="black" points="186.705,-185.4 187.789,-195.939 193.514,-187.024 186.705,-185.4"/>
<text text-anchor="middle" x="226" y="-112.3" font-family="Times,serif" font-size="14.00">HanName</text>
</g>
</g>
</svg>
